<?xml version="1.0" encoding="utf-8"?>
<!-- Generator: Adobe Illustrator 21.0.2, SVG Export Plug-In . SVG Version: 6.00 Build 0)  -->
<svg version="1.1" id="Capa_2" xmlns="http://www.w3.org/2000/svg" xmlns:xlink="http://www.w3.org/1999/xlink" x="0px" y="0px"
	 viewBox="0 0 635.9 171.6" style="enable-background:new 0 0 635.9 171.6;" xml:space="preserve">
<style type="text/css">
	.st0{fill:#828282;}
	.st1{fill-rule:evenodd;clip-rule:evenodd;fill:#828282;}
</style>
<path class="st0" d="M568.1,54.6c-1-8.3,4.9-15.9,13.3-17c8.3-1,15.9,4.9,17,13.3c1,8.3-4.9,15.9-13.2,17
	C576.7,68.8,569.1,62.9,568.1,54.6z"/>
<path class="st0" d="M513.7,140.9c-0.6-5.2,3.1-10,8.3-10.6c5.2-0.6,10,3.1,10.6,8.3c0.6,5.2-3.1,10-8.3,10.6
	C519.1,149.8,514.3,146.1,513.7,140.9z"/>
<path class="st1" d="M530.9,59.1c-3.5-28.9,17-55.2,45.9-58.7c28.9-3.5,55.2,17,58.7,45.9c3.5,28.9-17,55.2-45.9,58.7
	c-9.5,1.2-18.7-0.3-26.9-3.7l-0.7,0.1c-1.2-0.2-2.5-0.3-3.8-0.1c-7.1,0.9-12.1,7.3-11.2,14.4c0.2,1.6,0.7,3.2,1.5,4.5
	c3.3,4.4,5.6,9.7,6.3,15.6c2.1,17.5-10.3,33.4-27.8,35.5c-17.5,2.1-33.4-10.3-35.5-27.8c-2.1-17.5,10.3-33.4,27.8-35.5
	c5.3-0.6,10.4,0,15,1.8c0.8,0,1.7-0.1,2.5-0.2c7.1-0.9,12.1-7.3,11.2-14.4c-0.2-1.7-0.7-3.3-1.5-4.7
	C538.1,82.4,532.4,71.5,530.9,59.1z M549.7,56.8c-2.3-18.5,10.9-35.3,29.4-37.6c18.5-2.3,35.3,10.9,37.6,29.4
	c2.3,18.5-10.9,35.3-29.4,37.6C568.8,88.4,552,75.3,549.7,56.8z M503.7,142.1c-1.3-10.7,6.3-20.5,17.1-21.8
	c10.7-1.3,20.5,6.3,21.8,17.1c1.3,10.7-6.3,20.5-17.1,21.8C514.8,160.5,505,152.8,503.7,142.1z"/>
<path class="st1" d="M315.8,99.4c-12.6,0-23.3,8.5-26.7,20.3h53.4C339,107.9,328.4,99.4,315.8,99.4z M315.8,85
	c23.2,0,42,19.2,42,42.8c0,1.8-0.1,3.7-0.3,5.5l-0.1,0.4l-6.5,0.1h-62.4c2.7,12.8,13.9,22.4,27.2,22.4c11.2,0,20.9-6.7,25.3-16.5
	l0.1-0.3h15L356,140c-5.2,17.6-21.2,30.5-40.2,30.5c-23.2,0-42-19.2-42-42.8C273.8,104.1,292.6,85,315.8,85z M396.1,99.5
	c-9.6,0-17.5,7.6-17.9,17.1v52.4h-14.5v-53.2l0-0.1c0-16.7,14.3-30.1,31.8-30.1c10.6,0,19.9,4.9,25.7,12.4
	c5.8-7.5,15.2-12.4,25.7-12.4c17.5,0,31.8,13.4,31.8,30v0.1v53.3h-14.6v-53.3c-0.8-9.1-8.5-16.3-17.8-16.3
	c-9.6,0-17.5,7.6-17.9,17.1v52.4h-14.6v-53.3C413.1,106.7,405.4,99.5,396.1,99.5z M224.4,85c10.6,0,20.3,4,27.7,10.6V60.2h14.4v65.4
	h-0.2c0,0.7,0.1,1.5,0.1,2.3c0,23.6-18.8,42.8-42,42.8c-23.2,0-42-19.2-42-42.8C182.4,104.1,201.2,85,224.4,85z M252.1,125
	L252.1,125c-1.4-14.5-13.3-25.7-27.7-25.7c-15.4,0-27.9,12.7-27.9,28.4c0,15.7,12.5,28.4,27.9,28.4s27.9-12.7,27.9-28.4
	C252.3,126.8,252.2,125.9,252.1,125z M173.9,130.5h0.3V169h-14.6v-9c-7.4,6.6-17,10.5-27.6,10.5c-23.2,0-42-19.2-42-42.8
	c0-23.6,18.8-42.8,42-42.8c23.2,0,42,19.2,42,42.8C174,128.7,174,129.6,173.9,130.5z M132,156.1c14.1,0,25.7-10.6,27.6-24.5V131
	c0.2-1.1,0.3-2.2,0.3-3.2c0-15.7-12.5-28.4-27.9-28.4c-15.4,0-27.9,12.7-27.9,28.4C104.1,143.5,116.6,156.1,132,156.1z M43.4,85
	c19.1,0,35.4,12.3,41.1,29.3l0.2,0.7H69l-0.1-0.3c-4.8-9.1-14.4-15.2-25.5-15.2c-15.9,0-28.8,12.8-28.8,28.6s12.9,28.6,28.8,28.6
	c10.8,0,20.2-5.9,25.2-14.7l0.1-0.3h15.9l-0.2,0.7c-6,16.8-22,28.8-40.9,28.8c-24,0-43.4-19.3-43.4-43.1S19.4,85,43.4,85z"/>
</svg>
