<?xml version="1.0" encoding="utf-8"?>
<!-- Generator: Adobe Illustrator 21.0.2, SVG Export Plug-In . SVG Version: 6.00 Build 0)  -->
<svg version="1.1" id="Capa_1" xmlns="http://www.w3.org/2000/svg" xmlns:xlink="http://www.w3.org/1999/xlink" x="0px" y="0px"
	 viewBox="0 0 640.9 180.9" style="enable-background:new 0 0 640.9 180.9;" xml:space="preserve">
<style type="text/css">
	.st0{fill:#31569F;}
	.st1{fill:#AFCC49;}
	.st2{fill:#833A8C;}
	.st3{fill-rule:evenodd;clip-rule:evenodd;fill:#31569F;}
</style>
<g>
	<path class="st0" d="M232.4,150.7c-3.3-3.5-7.3-5.3-12.1-5.5c-4.9-0.2-9.1,1.6-12.7,5.1c-3.5,3.5-5.3,7.8-5.3,12.8
		c0,4.8,1.6,8.9,4.9,12.4c3.3,3.5,7.3,5.3,12.1,5.4c4.9,0.2,9.1-1.6,12.7-5.1c3.6-3.6,5.4-7.8,5.4-12.7
		C237.4,158.3,235.7,154.2,232.4,150.7z M229,172.5c-2.6,2.8-5.8,4.1-9.6,3.9c-3.5-0.1-6.4-1.5-8.9-4.2c-2.4-2.7-3.6-5.9-3.5-9.4
		c0.1-3.6,1.3-6.7,3.9-9.3c2.6-2.6,5.6-3.9,9.3-3.8c3.5,0,6.4,1.3,8.8,3.8c2.4,2.6,3.8,5.6,3.9,9.2
		C232.9,166.5,231.7,169.7,229,172.5z"/>
	<path class="st0" d="M295.9,180.1h-4.6v-19.9c0-2.9-1.1-5.3-3.2-7.4c-2.1-2.1-4.5-3.1-7.3-3.1c-2.8,0-5.3,1-7.4,3.1
		c-2.1,2.1-3.1,4.5-3.1,7.4v19.9h-4.6v-19.4c0-4.4,1.4-8.1,4.3-11c2.9-2.9,6.4-4.4,10.8-4.4c4.3,0,7.9,1.5,10.7,4.4
		c2.9,2.9,4.3,6.6,4.3,11V180.1z"/>
	<rect x="321" y="134.1" class="st0" width="4.5" height="46"/>
	<rect x="354.5" y="134.1" class="st0" width="4.5" height="7.9"/>
	<rect x="354.5" y="146.1" class="st0" width="4.5" height="34"/>
	<path class="st0" d="M415.5,180.1h-4.6v-19.9c0-2.9-1.1-5.3-3.2-7.4c-2.1-2.1-4.5-3.1-7.3-3.1c-2.8,0-5.3,1-7.4,3.1
		c-2.1,2.1-3.1,4.5-3.1,7.4v19.9h-4.6v-19.4c0-4.4,1.4-8.1,4.3-11c2.9-2.9,6.4-4.4,10.8-4.4c4.3,0,7.9,1.5,10.7,4.4
		c2.9,2.9,4.3,6.6,4.3,11V180.1z"/>
	<path class="st0" d="M475.8,162.2c0-4.2-1.6-8.1-4.8-11.5c-3.3-3.5-7.3-5.3-11.8-5.6c-5.1-0.3-9.4,1.4-13.2,5.1
		c-3.7,3.6-5.5,8.1-5.4,13.1c0.1,4.8,1.9,9,5.5,12.5c3.6,3.5,7.7,5.1,12.4,5.1c3.7-0.1,7-1.1,10.1-3.3c3-2.1,5.2-5.1,6.4-8.7h-4.8
		c-2.3,4.9-6.1,7.4-11.5,7.5c-3.5,0.1-6.4-1.1-9-3.3c-2.6-2.2-4-5.1-4.4-8.5h30.6V162.2z M445.3,160.5c0.7-3.2,2.1-5.9,4.6-7.8
		c2.4-2,5.3-3,8.6-2.9c3.3,0.1,6.1,1.1,8.4,3c2.3,2,3.8,4.5,4.5,7.7H445.3z"/>
</g>
<path class="st1" d="M607.1,74.8c0,7.6-6.1,13.7-13.7,13.7c-7.6,0-13.7-6.1-13.7-13.7c0-7.6,6.1-13.7,13.7-13.7
	C601,61.1,607.1,67.2,607.1,74.8"/>
<path class="st2" d="M550,152.7c0,4.8-3.9,8.7-8.7,8.7c-4.8,0-8.7-3.9-8.7-8.7c0-4.8,3.9-8.7,8.7-8.7C546.1,144,550,147.9,550,152.7
	"/>
<path class="st0" d="M594.5,29.1c-25.5,0-46.3,20.8-46.3,46.3c0,13,5.4,24.7,14,33.1c0.4,1.3,2,8.3-1.9,13.9
	c-4.7,4.9-8.2,4.9-8.8,4.9c-3.3-1.4-6.8-2.1-10.6-2.1c-15.3,0-27.7,12.4-27.7,27.7c0,15.3,12.4,27.7,27.7,27.7
	c15.3,0,27.7-12.4,27.7-27.7c0-6.6-2.3-12.7-6.2-17.4c-1.8-4.3-0.1-9.5,1.8-12.3c2.9-4.2,4.9-6,12.9-4.9c5.3,2.1,11.1,3.3,17.2,3.3
	c25.5,0,46.3-20.8,46.3-46.3C640.9,49.8,620.1,29.1,594.5,29.1z M541,171.2c-10,0-18.2-8.2-18.2-18.2c0-10,8.2-18.2,18.2-18.2
	c10,0,18.2,8.2,18.2,18.2C559.2,163,551.1,171.2,541,171.2z M594.5,105.8c-16.8,0-30.4-13.7-30.4-30.4c0-16.8,13.7-30.4,30.4-30.4
	c16.8,0,30.4,13.7,30.4,30.4C625,92.2,611.3,105.8,594.5,105.8z"/>
<g>
	<path class="st3" d="M350.2,43.5c-14,0-25.8,9.5-29.6,22.5h59.2C376,53,364.2,43.5,350.2,43.5z M350.2,27.5
		c25.7,0,46.6,21.2,46.6,47.4c0,2-0.1,4.1-0.4,6.1l-0.1,0.5l-7.2,0.1H320c3,14.2,15.4,24.8,30.2,24.8c12.4,0,23.2-7.5,28.1-18.3
		l0.1-0.3H395l-0.2,0.7c-5.8,19.6-23.5,33.8-44.6,33.8c-25.7,0-46.6-21.2-46.6-47.4C303.6,48.8,324.4,27.5,350.2,27.5z M439.2,43.7
		c-10.7,0-19.4,8.4-19.9,19v58.1h-16v-59l0-0.1c0-18.5,15.8-33.4,35.3-33.4c11.7,0,22.1,5.4,28.5,13.7c6.4-8.3,16.8-13.7,28.5-13.7
		c19.5,0,35.3,14.9,35.3,33.3v0.1v59.1h-16.2V61.7c-0.9-10.1-9.4-18-19.8-18c-10.7,0-19.4,8.4-19.9,19v58.1H459V61.7
		C458.1,51.6,449.6,43.7,439.2,43.7z M248.9,27.5c11.8,0,22.5,4.5,30.7,11.8V0h16v72.5h-0.2c0,0.8,0.1,1.7,0.1,2.5
		c0,26.2-20.9,47.4-46.6,47.4c-25.7,0-46.6-21.2-46.6-47.4C202.3,48.8,223.1,27.5,248.9,27.5z M279.6,71.9l0-0.1
		c-1.5-15.9-14.7-28.3-30.7-28.3C231.8,43.5,218,57.6,218,75c0,17.4,13.8,31.5,30.9,31.5c17.1,0,30.9-14.1,30.9-31.5
		C279.8,74,279.7,72.9,279.6,71.9z M192.9,78h0.3v42.7H177v-10c-8.2,7.3-18.9,11.7-30.6,11.7c-25.7,0-46.6-21.2-46.6-47.4
		c0-26.2,20.8-47.4,46.6-47.4c25.7,0,46.6,21.2,46.6,47.4C193,76,192.9,77,192.9,78z M146.4,106.4c15.6,0,28.5-11.8,30.6-27.1v-0.8
		c0.2-1.2,0.3-2.4,0.3-3.6c0-17.4-13.8-31.5-30.9-31.5c-17.1,0-30.9,14.1-30.9,31.5C115.5,92.4,129.3,106.4,146.4,106.4z M48.1,27.5
		c21.2,0,39.2,13.6,45.6,32.5l0.3,0.8H76.5l-0.2-0.3c-5.4-10-16-16.9-28.3-16.9c-17.7,0-32,14.2-32,31.7c0,17.5,14.3,31.7,32,31.7
		c12,0,22.5-6.6,27.9-16.3l0.2-0.3h17.6l-0.3,0.8c-6.6,18.6-24.4,31.9-45.4,31.9C21.5,123.2,0,101.8,0,75.4S21.5,27.5,48.1,27.5z"/>
</g>
</svg>
