<?xml version="1.0" encoding="utf-8"?>
<!-- Generator: Adobe Illustrator 21.1.0, SVG Export Plug-In . SVG Version: 6.00 Build 0)  -->
<svg version="1.1" id="Capa_1" xmlns="http://www.w3.org/2000/svg" xmlns:xlink="http://www.w3.org/1999/xlink" x="0px" y="0px"
	 viewBox="0 0 640.9 180.9" style="enable-background:new 0 0 640.9 180.9;" xml:space="preserve">
<style type="text/css">
	.st0{fill:#AFCC49;}
	.st1{fill:#833A8C;}
	.st2{fill:#31569F;}
</style>
<path class="st0" d="M607.1,74.8c0,7.6-6.1,13.7-13.7,13.7c-7.6,0-13.7-6.1-13.7-13.7s6.1-13.7,13.7-13.7
	C601,61.1,607.1,67.2,607.1,74.8"/>
<path class="st1" d="M550,152.7c0,4.8-3.9,8.7-8.7,8.7s-8.7-3.9-8.7-8.7s3.9-8.7,8.7-8.7S550,147.9,550,152.7"/>
<path class="st2" d="M594.5,29.1c-25.5,0-46.3,20.8-46.3,46.3c0,13,5.4,24.7,14,33.1c0.4,1.3,2,8.3-1.9,13.9
	c-4.7,4.9-8.2,4.9-8.8,4.9c-3.3-1.4-6.8-2.1-10.6-2.1c-15.3,0-27.7,12.4-27.7,27.7s12.4,27.7,27.7,27.7s27.7-12.4,27.7-27.7
	c0-6.6-2.3-12.7-6.2-17.4c-1.8-4.3-0.1-9.5,1.8-12.3c2.9-4.2,4.9-6,12.9-4.9c5.3,2.1,11.1,3.3,17.2,3.3c25.5,0,46.3-20.8,46.3-46.3
	C640.9,49.8,620.1,29.1,594.5,29.1z M541,171.2c-10,0-18.2-8.2-18.2-18.2s8.2-18.2,18.2-18.2s18.2,8.2,18.2,18.2
	S551.1,171.2,541,171.2z M594.5,105.8c-16.8,0-30.4-13.7-30.4-30.4c0-16.8,13.7-30.4,30.4-30.4c16.8,0,30.4,13.7,30.4,30.4
	C625,92.2,611.3,105.8,594.5,105.8z"/>
<g>
	<path class="st2" d="M350.2,43.5c-14,0-25.8,9.5-29.6,22.5h59.2C376,53,364.2,43.5,350.2,43.5z M350.2,27.5
		c25.7,0,46.6,21.2,46.6,47.4c0,2-0.1,4.1-0.4,6.1l-0.1,0.5l-7.2,0.1H320c3,14.2,15.4,24.8,30.2,24.8c12.4,0,23.2-7.5,28.1-18.3
		l0.1-0.3H395l-0.2,0.7c-5.8,19.6-23.5,33.8-44.6,33.8c-25.7,0-46.6-21.2-46.6-47.4C303.6,48.8,324.4,27.5,350.2,27.5z M439.2,43.7
		c-10.7,0-19.4,8.4-19.9,19v58.1h-16v-59v-0.1c0-18.5,15.8-33.4,35.3-33.4c11.7,0,22.1,5.4,28.5,13.7c6.4-8.3,16.8-13.7,28.5-13.7
		c19.5,0,35.3,14.9,35.3,33.3v0.1v59.1h-16.2V61.7c-0.9-10.1-9.4-18-19.8-18c-10.7,0-19.4,8.4-19.9,19v58.1h-16V61.7
		C458.1,51.6,449.6,43.7,439.2,43.7z M248.9,27.5c11.8,0,22.5,4.5,30.7,11.8V0h16v72.5h-0.2c0,0.8,0.1,1.7,0.1,2.5
		c0,26.2-20.9,47.4-46.6,47.4s-46.6-21.2-46.6-47.4C202.3,48.8,223.1,27.5,248.9,27.5z M279.6,71.9L279.6,71.9
		c-1.5-16-14.7-28.4-30.7-28.4C231.8,43.5,218,57.6,218,75s13.8,31.5,30.9,31.5s30.9-14.1,30.9-31.5C279.8,74,279.7,72.9,279.6,71.9
		z M192.9,78h0.3v42.7H177v-10c-8.2,7.3-18.9,11.7-30.6,11.7c-25.7,0-46.6-21.2-46.6-47.4s20.8-47.4,46.6-47.4
		c25.7,0,46.6,21.2,46.6,47.4C193,76,192.9,77,192.9,78z M146.4,106.4c15.6,0,28.5-11.8,30.6-27.1v-0.8c0.2-1.2,0.3-2.4,0.3-3.6
		c0-17.4-13.8-31.5-30.9-31.5s-30.9,14.1-30.9,31.5C115.5,92.4,129.3,106.4,146.4,106.4z M48.1,27.5c21.2,0,39.2,13.6,45.6,32.5
		l0.3,0.8H76.5l-0.2-0.3c-5.4-10-16-16.9-28.3-16.9c-17.7,0-32,14.2-32,31.7S30.3,107,48,107c12,0,22.5-6.6,27.9-16.3l0.2-0.3h17.6
		l-0.3,0.8C86.8,109.8,69,123.1,48,123.1c-26.5,0.1-48-21.3-48-47.7S21.5,27.5,48.1,27.5z"/>
</g>
</svg>
